<svg id="svg" version="1.1" xmlns="http://www.w3.org/2000/svg" xmlns:xlink="http://www.w3.org/1999/xlink" width="400" height="204.63808854532678" viewBox="0, 0, 400,204.63808854532678"><g id="svgg"><path id="path0" d="M320.250 9.191 C 311.384 10.323,298.392 20.416,293.658 29.851 C 287.031 43.056,293.623 59.208,305.019 57.691 C 318.334 55.918,330.074 39.162,330.082 21.917 C 330.086 12.583,326.818 8.353,320.250 9.191 M324.211 11.466 C 329.853 13.961,329.568 28.750,323.657 40.145 C 318.333 50.410,307.723 57.590,300.964 55.502 C 293.468 53.187,290.563 40.431,295.338 30.799 C 300.752 19.876,317.648 8.563,324.211 11.466 M356.500 24.391 C 346.135 27.276,332.989 41.075,330.117 52.083 C 326.368 66.455,336.248 77.668,350.512 75.232 C 363.993 72.929,371.635 60.368,370.503 42.373 C 369.642 28.695,364.546 22.151,356.500 24.391 M361.215 26.081 C 365.503 27.198,368.310 33.900,368.617 43.750 C 369.143 60.673,362.175 71.566,349.645 73.406 C 334.822 75.584,326.617 61.960,333.993 47.417 C 340.031 35.511,354.345 24.292,361.215 26.081 M275.250 27.104 C 273.549 27.439,272.915 27.598,271.833 27.959 C 266.823 29.633,260.238 34.547,256.075 39.719 C 242.318 56.812,252.006 74.816,272.644 70.510 C 284.306 68.078,290.225 60.841,290.236 49.000 C 290.248 35.442,283.438 25.492,275.250 27.104 M279.487 29.355 C 287.119 31.933,291.091 49.532,286.228 59.219 C 281.250 69.133,262.824 72.684,255.316 65.176 C 252.119 61.979,250.827 56.774,251.972 51.703 C 254.671 39.746,270.996 26.488,279.487 29.355 M306.613 65.332 C 301.896 65.924,298.506 68.467,293.060 75.500 C 287.865 82.209,286.852 82.722,278.083 83.085 C 270.470 83.400,266.857 85.333,262.974 91.167 C 256.356 101.109,255.706 111.416,261.218 119.041 L 262.151 120.331 248.804 120.374 L 235.458 120.417 234.216 124.250 C 233.533 126.358,232.080 130.840,230.987 134.208 C 229.894 137.577,228.106 143.090,227.013 146.458 C 225.920 149.827,223.702 156.671,222.083 161.667 C 220.465 166.662,218.616 172.362,217.974 174.333 C 217.333 176.304,215.921 180.654,214.837 184.000 C 213.753 187.346,212.567 191.002,212.200 192.125 L 211.534 194.167 222.227 194.167 L 232.920 194.167 234.992 187.167 L 237.064 180.167 249.187 180.167 C 260.590 180.167,261.316 180.184,261.396 180.458 C 261.624 181.240,265.207 193.154,265.355 193.625 L 265.526 194.167 276.180 194.167 C 282.039 194.167,286.833 194.115,286.833 194.052 C 286.833 193.989,286.041 191.533,285.073 188.594 C 281.817 178.713,279.382 171.313,275.746 160.250 C 273.758 154.200,271.846 148.387,271.498 147.333 C 271.150 146.279,270.039 142.904,269.030 139.833 C 268.020 136.762,266.250 131.385,265.097 127.883 C 263.944 124.381,263.000 121.481,263.000 121.439 C 263.000 121.397,263.469 121.852,264.042 122.450 C 268.403 127.004,277.243 132.800,285.269 136.366 C 286.312 136.829,286.641 137.057,286.704 137.358 C 286.750 137.574,288.191 142.625,289.906 148.583 C 293.170 159.922,295.463 167.902,299.772 182.917 C 301.193 187.867,302.503 192.424,302.685 193.043 L 303.015 194.169 312.778 194.126 L 322.540 194.083 328.356 174.750 C 331.555 164.117,334.411 154.610,334.703 153.625 C 334.995 152.640,335.275 151.834,335.325 151.834 C 335.396 151.834,340.680 169.679,347.618 193.347 L 347.859 194.169 357.459 194.126 L 367.059 194.083 367.176 193.667 C 367.240 193.438,368.769 188.112,370.575 181.833 C 372.381 175.554,374.945 166.629,376.273 162.000 C 377.602 157.371,379.541 150.621,380.583 147.000 C 384.572 133.133,387.981 121.232,388.090 120.792 L 388.203 120.333 377.185 120.333 C 371.125 120.333,366.167 120.364,366.167 120.401 C 366.167 120.457,362.421 137.791,360.834 145.083 C 360.574 146.275,359.453 151.450,358.342 156.583 C 357.231 161.717,356.275 166.067,356.219 166.250 C 356.155 166.458,355.630 164.728,354.828 161.667 C 354.119 158.962,353.301 155.850,353.009 154.750 C 352.717 153.650,351.738 149.938,350.834 146.500 C 349.929 143.063,348.960 139.387,348.680 138.333 C 348.401 137.279,347.221 132.798,346.060 128.375 L 343.948 120.333 340.401 120.333 L 336.854 120.333 336.740 119.542 C 336.401 117.197,335.459 115.101,332.467 110.037 C 328.145 102.722,328.039 101.804,330.416 92.352 C 333.214 81.223,332.745 77.662,327.862 72.961 C 322.689 67.980,313.060 64.524,306.613 65.332 M311.833 67.423 C 317.634 68.355,323.229 71.052,326.848 74.658 C 330.797 78.594,331.111 81.857,328.519 92.006 C 326.045 101.691,326.262 103.470,330.846 111.083 C 332.824 114.368,334.202 117.151,334.573 118.607 C 335.056 120.506,335.444 120.333,330.706 120.333 L 326.579 120.333 324.515 128.208 C 321.808 138.535,322.108 137.606,321.369 137.978 C 318.087 139.630,313.423 140.744,310.250 140.635 L 308.751 140.583 308.595 139.833 C 308.509 139.421,307.529 134.883,306.416 129.750 L 304.392 120.417 293.094 120.374 L 281.797 120.331 281.894 120.707 C 281.947 120.914,282.852 124.080,283.905 127.743 C 284.958 131.406,285.796 134.426,285.767 134.455 C 285.678 134.544,279.676 131.439,277.667 130.263 C 267.250 124.170,261.596 118.265,259.797 111.602 C 257.659 103.681,263.708 89.682,270.707 86.356 C 272.657 85.429,273.927 85.235,280.667 84.833 C 287.090 84.449,289.335 83.356,292.833 78.911 C 298.089 72.233,298.690 71.545,300.604 70.005 C 303.728 67.492,307.240 66.684,311.833 67.423 M365.167 74.427 C 358.007 75.971,349.061 82.042,344.551 88.417 C 334.203 103.041,343.792 124.018,359.142 120.338 C 370.931 117.512,378.559 105.867,378.578 90.667 C 378.593 78.223,373.902 72.542,365.167 74.427 M371.047 76.501 C 378.530 79.301,378.765 98.691,371.447 109.395 C 366.987 115.918,359.337 119.810,353.356 118.598 C 344.041 116.710,339.054 102.821,344.096 92.808 C 349.054 82.963,364.058 73.885,371.047 76.501 M42.000 119.670 C 28.422 120.600,16.671 129.132,12.614 141.005 C 9.524 150.047,8.944 157.519,10.588 167.088 C 14.634 190.641,39.921 202.853,62.652 192.231 C 72.656 187.556,81.315 175.158,80.060 167.308 L 79.957 166.664 68.854 166.707 L 57.750 166.750 57.620 168.583 C 57.092 176.053,46.782 179.697,38.924 175.191 C 32.169 171.318,29.278 157.533,33.156 147.692 C 34.798 143.528,38.560 139.859,42.271 138.804 C 46.400 137.630,51.375 138.479,54.317 140.859 C 56.250 142.424,56.907 143.594,57.353 146.270 C 57.443 146.809,57.558 147.494,57.610 147.792 L 57.703 148.333 68.852 148.333 L 80.000 148.333 80.000 147.450 C 80.000 146.964,79.936 146.495,79.859 146.408 C 79.781 146.321,79.623 145.688,79.507 145.000 C 79.170 143.005,77.433 137.975,76.254 135.583 C 70.318 123.538,59.425 118.477,42.000 119.670 M87.167 157.328 L 87.167 195.000 98.250 195.000 L 109.333 195.000 109.333 184.000 L 109.333 173.000 116.213 173.000 C 127.485 173.000,131.544 171.978,137.266 167.700 C 154.366 154.914,150.061 127.759,129.862 121.000 C 125.899 119.674,127.713 119.773,106.292 119.711 L 87.167 119.656 87.167 157.328 M156.167 157.750 L 156.167 194.833 166.333 194.833 L 176.500 194.833 176.500 183.926 L 176.500 173.019 185.042 172.958 C 195.164 172.884,196.198 172.718,200.861 170.411 C 221.143 160.377,220.145 130.660,199.252 122.510 C 194.492 120.653,194.678 120.667,174.000 120.667 L 156.167 120.667 156.167 157.750 M51.783 121.674 C 65.659 122.808,75.381 131.871,77.743 145.875 L 77.848 146.500 68.594 146.500 L 59.340 146.500 59.271 146.125 C 59.233 145.919,59.113 145.268,59.005 144.678 C 58.353 141.130,54.406 137.576,50.185 136.738 C 48.365 136.377,43.290 136.483,41.762 136.914 C 29.506 140.371,25.367 160.336,34.176 173.500 C 40.284 182.629,59.500 179.440,59.500 169.298 L 59.500 168.667 68.847 168.667 L 78.193 168.667 78.076 169.792 C 77.127 178.887,68.505 188.522,58.301 191.890 C 36.546 199.071,15.978 187.724,12.431 166.583 C 10.915 157.544,11.420 150.826,14.268 142.168 C 17.810 131.398,28.029 123.248,39.750 121.845 C 40.575 121.747,41.438 121.639,41.667 121.606 C 42.638 121.465,49.821 121.514,51.783 121.674 M126.130 121.954 C 140.972 125.367,149.433 139.909,144.812 154.064 C 142.437 161.339,136.476 167.344,129.218 169.772 C 125.697 170.951,125.154 171.000,115.744 171.000 L 107.333 171.000 107.333 182.000 L 107.333 193.000 98.167 193.000 L 89.000 193.000 89.000 157.244 L 89.000 121.489 106.792 121.543 C 124.262 121.597,124.611 121.604,126.130 121.954 M107.333 146.583 L 107.333 157.833 112.553 157.833 C 116.846 157.833,117.934 157.786,118.678 157.567 C 126.673 155.216,129.480 145.223,123.891 139.007 C 122.001 136.904,117.554 134.727,117.285 135.773 C 117.219 136.030,117.202 136.019,117.186 135.708 L 117.167 135.333 112.250 135.333 L 107.333 135.333 107.333 146.583 M187.553 136.741 C 195.001 139.370,196.921 148.889,191.171 154.680 C 188.480 157.389,187.541 157.667,181.057 157.667 L 176.000 157.667 176.000 147.000 L 176.000 136.333 181.208 136.337 C 186.279 136.340,186.447 136.351,187.553 136.741 M118.178 137.599 C 125.761 139.826,127.315 149.983,120.763 154.491 C 118.843 155.812,118.397 155.905,113.625 155.968 L 109.333 156.025 109.333 146.679 L 109.333 137.333 113.303 137.333 C 116.448 137.333,117.461 137.389,118.178 137.599 M252.821 152.242 C 254.842 158.925,256.471 164.418,256.440 164.449 C 256.410 164.479,253.091 164.484,249.064 164.460 L 241.743 164.417 245.194 152.833 C 247.093 146.462,248.731 140.961,248.834 140.609 C 249.087 139.750,248.713 138.658,252.821 152.242 M321.333 140.253 C 321.333 140.300,320.953 141.781,320.489 143.544 C 318.716 150.274,316.967 156.932,316.255 159.667 C 314.521 166.322,314.441 166.584,314.303 166.073 C 314.231 165.803,313.303 161.571,312.242 156.667 C 311.181 151.762,310.067 146.625,309.767 145.250 L 309.221 142.750 311.004 142.634 C 314.164 142.429,317.179 141.766,319.883 140.682 C 321.168 140.168,321.333 140.119,321.333 140.253 " stroke="none" fill="#040404" fill-rule="evenodd"></path><path id="path1" d="M319.517 11.247 C 310.792 13.226,299.537 22.327,295.338 30.799 C 289.868 41.834,294.421 55.840,303.476 55.832 C 314.094 55.824,325.549 42.374,327.821 27.250 C 329.554 15.706,326.427 9.680,319.517 11.247 M357.845 26.015 C 349.018 27.746,335.636 40.998,332.362 51.250 C 328.089 64.627,336.450 75.345,349.645 73.406 C 362.175 71.566,369.143 60.673,368.617 43.750 C 368.230 31.333,364.238 24.761,357.845 26.015 M273.890 29.331 C 268.828 30.658,262.308 35.218,257.922 40.500 C 244.915 56.162,253.197 72.679,272.048 68.671 C 284.300 66.066,289.886 57.679,288.094 44.583 C 286.542 33.251,281.126 27.434,273.890 29.331 M305.750 67.428 C 303.437 67.883,300.617 69.654,298.407 72.038 C 297.508 73.007,296.546 74.194,292.833 78.911 C 289.335 83.356,287.090 84.449,280.667 84.833 C 273.927 85.235,272.657 85.429,270.707 86.356 C 263.708 89.682,257.659 103.681,259.797 111.602 C 261.596 118.265,267.250 124.170,277.667 130.263 C 279.676 131.439,285.678 134.544,285.767 134.455 C 285.796 134.426,284.958 131.406,283.905 127.743 C 282.852 124.080,281.947 120.914,281.894 120.707 L 281.797 120.331 293.094 120.374 L 304.392 120.417 306.416 129.750 C 307.529 134.883,308.509 139.421,308.595 139.833 L 308.751 140.583 310.250 140.635 C 313.423 140.744,318.087 139.630,321.369 137.978 C 322.108 137.606,321.808 138.535,324.515 128.208 L 326.579 120.333 330.706 120.333 C 335.444 120.333,335.056 120.506,334.573 118.607 C 334.202 117.151,332.824 114.368,330.846 111.083 C 326.262 103.470,326.045 101.691,328.519 92.006 C 331.111 81.857,330.797 78.594,326.848 74.658 C 321.650 69.478,312.047 66.187,305.750 67.428 M366.000 76.235 C 359.048 77.472,349.985 83.721,345.551 90.333 C 337.675 102.079,344.274 119.500,356.327 118.783 C 367.943 118.093,376.724 105.883,376.727 90.417 C 376.729 79.815,373.069 74.976,366.000 76.235 M41.667 121.606 C 41.438 121.639,40.575 121.747,39.750 121.845 C 28.029 123.248,17.810 131.398,14.268 142.168 C 11.420 150.826,10.915 157.544,12.431 166.583 C 15.978 187.724,36.546 199.071,58.301 191.890 C 68.505 188.522,77.127 178.887,78.076 169.792 L 78.193 168.667 68.847 168.667 L 59.500 168.667 59.500 169.298 C 59.500 179.440,40.284 182.629,34.176 173.500 C 27.410 163.389,27.984 148.140,35.400 140.934 C 38.875 137.558,40.932 136.688,45.768 136.548 C 52.816 136.344,58.066 139.569,59.005 144.678 C 59.113 145.268,59.233 145.919,59.271 146.125 L 59.340 146.500 68.594 146.500 L 77.848 146.500 77.743 145.875 C 75.649 133.460,66.680 123.873,55.500 122.100 C 52.326 121.596,43.831 121.293,41.667 121.606 M89.000 157.244 L 89.000 193.000 98.167 193.000 L 107.333 193.000 107.333 182.000 L 107.333 171.000 115.744 171.000 C 123.364 171.000,124.311 170.970,125.812 170.679 C 140.641 167.804,149.506 152.690,144.750 138.391 C 142.315 131.072,136.371 125.155,129.047 122.758 C 125.311 121.535,126.578 121.604,106.792 121.543 L 89.000 121.489 89.000 157.244 M117.186 135.708 C 117.202 136.019,117.219 136.030,117.285 135.773 C 117.554 134.727,122.001 136.904,123.891 139.007 C 129.480 145.223,126.673 155.216,118.678 157.567 C 117.934 157.786,116.846 157.833,112.553 157.833 L 107.333 157.833 107.333 146.583 L 107.333 135.333 112.250 135.333 L 117.167 135.333 117.186 135.708 " stroke="none" fill="#dbb31b" fill-rule="evenodd"></path><path id="path2" d="M26.833 0.177 C 20.916 1.071,16.647 2.840,11.843 6.388 C 7.611 9.514,3.320 15.464,1.667 20.500 C 0.941 22.711,0.500 24.610,0.170 26.949 C -0.131 29.073,-0.059 175.857,0.244 178.013 C 1.880 189.664,10.174 199.602,21.115 203.017 C 23.095 203.635,23.713 203.798,25.250 204.111 C 27.597 204.589,372.403 204.589,374.750 204.111 C 383.619 202.305,390.683 197.522,395.372 190.147 C 397.580 186.676,399.326 181.848,399.797 177.917 C 399.953 176.610,399.953 27.890,399.797 26.583 C 398.171 13.008,387.198 2.170,373.051 0.170 C 371.577 -0.039,28.214 -0.031,26.833 0.177 M323.428 9.182 C 326.337 9.718,328.485 11.962,329.476 15.500 L 329.780 16.583 330.885 16.694 C 337.231 17.330,339.449 27.820,335.759 39.743 C 335.291 41.255,335.306 41.413,335.847 40.635 C 339.672 35.129,347.202 28.473,352.583 25.839 C 359.890 22.264,364.719 23.580,367.820 29.993 L 368.497 31.394 369.707 31.747 C 379.329 34.554,380.935 61.276,372.173 72.792 C 370.896 74.471,370.881 74.500,371.255 74.500 C 373.070 74.500,376.371 78.057,377.326 81.042 C 377.476 81.512,377.636 81.689,377.971 81.758 C 378.216 81.808,378.717 81.927,379.083 82.024 C 388.570 84.516,388.227 108.547,378.555 118.993 L 377.469 120.167 382.912 120.167 C 388.020 120.167,388.350 120.185,388.265 120.458 C 388.215 120.619,387.540 122.962,386.766 125.667 C 385.448 130.272,384.197 134.631,378.082 155.917 C 374.430 168.630,371.529 178.733,369.180 186.917 L 367.076 194.250 357.465 194.293 L 347.854 194.336 347.440 192.960 C 347.212 192.203,346.790 190.758,346.502 189.750 C 346.214 188.742,344.817 183.979,343.398 179.167 C 341.979 174.354,339.613 166.329,338.140 161.333 C 336.668 156.337,335.422 152.181,335.371 152.097 C 335.321 152.013,335.111 152.501,334.905 153.180 C 332.965 159.585,329.475 171.188,324.782 186.833 L 322.558 194.250 312.793 194.293 L 303.028 194.336 302.773 193.543 C 302.633 193.107,301.996 190.912,301.357 188.667 C 300.718 186.421,298.942 180.233,297.411 174.917 C 295.879 169.600,294.569 165.025,294.499 164.750 C 294.429 164.475,293.581 161.512,292.614 158.167 C 291.648 154.821,289.985 149.048,288.920 145.339 C 287.854 141.629,286.968 138.584,286.950 138.573 C 286.932 138.561,285.934 137.972,284.733 137.262 C 283.532 136.553,281.694 135.381,280.650 134.658 C 278.206 132.968,276.916 132.125,274.250 130.474 C 270.423 128.105,266.926 125.404,264.426 122.888 C 263.733 122.191,263.167 121.667,263.167 121.722 C 263.167 121.778,263.423 122.595,263.737 123.537 C 264.051 124.479,265.822 129.862,267.672 135.500 C 269.523 141.137,271.434 146.950,271.918 148.417 C 272.402 149.883,274.313 155.696,276.165 161.333 C 278.016 166.971,279.706 172.108,279.920 172.750 C 280.134 173.392,281.788 178.417,283.594 183.917 C 285.401 189.417,286.914 194.010,286.957 194.125 C 287.019 194.290,284.814 194.333,276.276 194.333 L 265.516 194.333 265.357 193.792 C 265.270 193.494,264.546 191.112,263.749 188.500 C 262.952 185.887,262.064 182.943,261.776 181.957 L 261.251 180.165 249.180 180.207 L 237.109 180.250 235.023 187.292 L 232.937 194.333 222.218 194.333 C 216.323 194.333,211.500 194.280,211.500 194.215 C 211.500 194.108,212.910 189.721,215.747 181.000 C 216.329 179.213,217.643 175.162,218.666 172.000 C 221.040 164.671,222.269 160.887,222.755 159.417 C 222.967 158.775,223.864 156.000,224.748 153.250 C 225.633 150.500,226.460 147.950,226.586 147.583 C 226.712 147.217,227.311 145.379,227.918 143.500 C 228.526 141.621,229.424 138.846,229.915 137.333 C 230.406 135.821,231.645 131.996,232.669 128.833 C 233.693 125.671,234.741 122.446,234.998 121.667 L 235.465 120.250 248.649 120.207 C 255.900 120.184,261.833 120.139,261.833 120.108 C 261.833 120.077,261.414 119.425,260.903 118.660 C 257.361 113.369,256.500 108.007,258.179 101.694 C 260.203 94.084,264.939 87.009,269.500 84.780 C 272.129 83.496,273.002 83.346,280.833 82.835 C 286.959 82.435,288.268 81.651,292.959 75.572 C 298.433 68.479,301.321 66.211,305.902 65.404 C 313.736 64.026,325.985 69.136,330.167 75.527 C 330.972 76.759,331.253 77.039,332.488 77.839 C 339.646 82.482,340.743 86.781,337.768 98.534 C 335.275 108.378,335.431 109.667,340.040 117.375 L 341.709 120.167 342.830 120.167 L 343.951 120.167 344.246 121.292 C 344.408 121.910,344.751 123.204,345.008 124.167 C 345.265 125.129,345.977 127.829,346.589 130.167 C 347.201 132.504,347.913 135.204,348.172 136.167 C 348.431 137.129,349.143 139.829,349.755 142.167 C 350.366 144.504,351.039 147.054,351.250 147.833 C 351.461 148.612,352.633 153.055,353.853 157.705 C 355.074 162.356,356.118 166.106,356.175 166.039 C 356.231 165.972,356.822 163.367,357.488 160.250 C 358.155 157.133,358.988 153.271,359.340 151.667 C 360.000 148.658,360.734 145.278,361.423 142.083 C 361.640 141.075,361.966 139.575,362.147 138.750 C 362.328 137.925,362.969 134.975,363.571 132.194 C 364.174 129.414,364.713 126.958,364.768 126.736 C 364.869 126.334,364.867 126.333,363.461 126.333 C 360.017 126.333,356.667 124.670,354.140 121.705 C 353.454 120.899,353.097 120.622,352.583 120.492 C 342.384 117.926,336.936 103.441,342.055 92.500 C 343.697 88.989,346.892 85.021,350.418 82.113 C 351.807 80.967,351.810 81.020,350.354 80.650 C 347.308 79.876,344.984 78.551,342.885 76.392 C 341.660 75.130,341.400 74.946,340.339 74.585 C 331.882 71.709,327.323 62.082,329.900 52.542 C 330.030 52.060,330.118 51.667,330.095 51.667 C 330.073 51.667,329.576 52.285,328.992 53.042 C 324.707 58.589,317.845 62.944,312.667 63.403 C 309.090 63.720,305.656 62.008,303.499 58.832 L 302.873 57.910 301.470 57.645 C 300.631 57.487,299.590 57.141,298.881 56.785 L 297.695 56.190 297.604 56.970 C 297.555 57.399,297.467 58.275,297.410 58.917 C 297.056 62.902,295.509 66.709,293.136 69.435 C 285.395 78.327,267.268 79.292,261.661 71.109 C 261.335 70.633,261.071 70.479,260.174 70.236 C 251.759 67.960,247.601 58.845,250.600 49.250 C 252.935 41.783,261.022 32.951,269.083 29.063 C 277.010 25.240,282.732 26.668,286.586 33.430 C 287.291 34.668,287.358 34.732,288.422 35.181 C 289.030 35.437,289.918 35.942,290.397 36.304 L 291.266 36.960 291.562 35.523 C 294.143 22.986,313.136 7.286,323.428 9.182 M54.108 119.895 C 67.182 121.659,75.873 129.881,79.238 143.667 C 79.974 146.684,80.000 146.819,80.000 147.669 L 80.000 148.500 68.833 148.500 L 57.667 148.500 57.667 148.000 C 57.667 147.725,57.592 147.500,57.500 147.500 C 57.408 147.500,57.332 147.219,57.330 146.875 C 57.303 140.963,50.497 137.146,42.826 138.739 C 32.502 140.884,28.098 157.071,34.366 169.833 C 37.704 176.631,45.590 179.116,52.555 175.567 C 56.394 173.610,57.458 171.799,57.658 166.875 C 57.665 166.710,60.013 166.667,68.819 166.667 L 79.971 166.667 80.087 167.353 C 81.379 175.000,72.973 187.222,63.083 192.077 C 45.694 200.613,25.142 195.370,15.414 179.917 C 7.093 166.697,7.857 144.746,17.063 132.583 C 22.123 125.897,31.187 120.824,39.833 119.838 C 40.796 119.728,41.696 119.611,41.833 119.578 C 42.521 119.412,52.420 119.668,54.108 119.895 M124.171 119.675 C 146.650 122.469,156.016 149.295,140.083 165.253 C 133.950 171.397,129.099 173.000,116.645 173.000 L 109.333 173.000 109.333 184.000 L 109.333 195.000 98.167 195.000 L 87.000 195.000 87.000 157.361 C 87.000 136.660,87.050 119.672,87.111 119.611 C 87.302 119.420,122.608 119.481,124.171 119.675 M192.218 120.655 C 192.602 120.740,193.629 120.937,194.500 121.092 C 202.389 122.497,209.316 127.744,212.971 135.083 C 220.604 150.409,211.400 169.136,194.500 172.664 C 193.046 172.968,192.244 172.995,184.708 172.997 L 176.500 173.000 176.500 183.917 L 176.500 194.833 166.333 194.833 L 156.167 194.833 156.167 157.667 L 156.167 120.500 173.843 120.500 C 184.111 120.500,191.812 120.565,192.218 120.655 M176.000 146.958 L 176.000 157.500 181.244 157.500 C 187.262 157.500,187.326 157.488,189.606 155.963 C 196.071 151.639,196.083 141.994,189.630 137.823 C 187.648 136.542,187.520 136.521,181.430 136.466 L 176.000 136.417 176.000 146.958 M109.333 146.593 L 109.333 155.853 113.792 155.802 L 118.250 155.750 119.569 155.105 C 127.135 151.409,126.363 140.449,118.343 137.715 C 117.334 137.371,116.946 137.342,113.292 137.338 L 109.333 137.333 109.333 146.593 M245.507 151.954 C 243.553 158.534,241.918 164.048,241.874 164.208 C 241.799 164.483,242.225 164.500,249.139 164.500 L 256.484 164.500 256.237 163.708 C 256.102 163.273,255.436 161.079,254.758 158.833 C 254.080 156.587,252.521 151.429,251.293 147.371 L 249.060 139.992 245.507 151.954 M310.333 147.606 C 310.333 147.641,312.215 156.307,313.187 160.750 C 313.368 161.575,313.707 163.150,313.941 164.250 C 314.175 165.350,314.387 166.271,314.411 166.297 C 314.436 166.324,314.653 165.574,314.895 164.631 C 315.340 162.888,316.626 157.975,317.741 153.750 C 318.080 152.467,318.505 150.854,318.686 150.167 C 318.866 149.479,319.050 148.797,319.094 148.650 C 319.163 148.418,318.848 148.369,316.628 148.263 C 315.229 148.197,313.240 148.013,312.208 147.854 C 311.177 147.695,310.333 147.584,310.333 147.606 " stroke="none" fill="#fbfbfb" fill-rule="evenodd"></path><path id="path3" d="M329.954 17.577 C 331.126 23.032,329.134 33.839,325.726 40.527 C 320.768 50.253,311.242 57.825,303.952 57.832 L 302.821 57.833 303.473 58.793 C 305.657 62.010,309.072 63.722,312.667 63.403 C 317.778 62.950,324.489 58.734,328.831 53.250 C 329.412 52.517,329.950 51.935,330.027 51.958 C 330.104 51.981,330.154 51.944,330.139 51.875 C 330.045 51.445,331.575 47.596,332.537 45.841 C 333.388 44.289,334.785 42.019,335.135 41.619 C 335.279 41.455,335.409 41.193,335.425 41.036 C 335.441 40.878,335.649 40.075,335.889 39.250 C 339.376 27.227,337.184 17.367,330.875 16.693 L 329.738 16.571 329.954 17.577 M283.833 29.917 C 284.144 30.238,284.436 30.500,284.482 30.500 C 284.528 30.500,284.311 30.238,284.000 29.917 C 283.689 29.596,283.397 29.333,283.351 29.333 C 283.305 29.333,283.522 29.596,283.833 29.917 M368.680 31.951 C 372.254 41.352,370.759 57.952,365.656 65.523 C 360.676 72.913,351.103 77.018,342.876 75.292 L 341.668 75.039 342.351 75.854 C 344.279 78.157,347.052 79.806,350.464 80.679 L 351.743 81.006 352.245 80.628 C 358.532 75.887,365.295 73.525,370.653 74.199 C 370.988 74.241,371.250 73.996,372.201 72.750 C 380.855 61.417,379.312 34.573,369.845 31.768 C 368.570 31.390,368.472 31.406,368.680 31.951 M287.752 35.738 C 290.801 42.634,291.187 52.278,288.665 58.611 C 285.276 67.127,274.103 72.524,263.211 70.907 C 260.993 70.578,261.003 70.533,262.861 72.391 C 270.483 80.013,288.121 77.302,294.625 67.509 C 296.570 64.581,298.401 56.600,297.296 55.870 C 293.054 53.069,290.079 44.308,291.152 37.779 L 291.284 36.974 290.427 36.326 C 289.646 35.737,287.878 34.833,287.504 34.833 C 287.420 34.833,287.532 35.241,287.752 35.738 M331.238 77.270 C 332.669 80.883,332.491 84.412,330.478 92.309 C 328.080 101.721,328.211 102.818,332.631 110.206 C 335.374 114.791,336.271 116.735,336.691 119.008 L 336.906 120.167 339.292 120.167 C 341.577 120.167,341.671 120.153,341.511 119.853 C 341.418 119.681,340.705 118.483,339.926 117.191 C 335.470 109.807,335.295 108.300,337.768 98.534 C 340.333 88.400,340.010 84.986,336.092 80.861 C 334.394 79.072,330.940 76.517,331.238 77.270 M377.721 82.060 C 382.336 101.218,371.168 120.710,355.556 120.745 C 353.091 120.751,353.195 120.624,354.468 122.074 C 356.807 124.737,360.166 126.333,363.429 126.333 L 364.806 126.333 365.139 124.875 C 365.322 124.073,365.634 122.685,365.833 121.792 L 366.194 120.167 371.831 120.167 L 377.469 120.167 378.555 118.993 C 388.560 108.188,388.485 83.700,378.442 81.852 C 377.669 81.710,377.639 81.719,377.721 82.060 M96.221 119.625 C 101.247 119.649,109.422 119.649,114.388 119.625 C 119.354 119.600,115.242 119.580,105.250 119.580 C 95.258 119.580,91.195 119.600,96.221 119.625 M208.000 128.250 C 208.311 128.571,208.603 128.833,208.649 128.833 C 208.695 128.833,208.478 128.571,208.167 128.250 C 207.856 127.929,207.564 127.667,207.518 127.667 C 207.472 127.667,207.689 127.929,208.000 128.250 M278.500 133.171 C 280.637 134.869,286.726 138.584,286.804 138.238 C 286.951 137.587,286.502 136.917,285.708 136.602 C 285.273 136.429,283.379 135.512,281.500 134.564 C 279.621 133.616,278.271 132.989,278.500 133.171 M179.542 136.458 C 180.802 136.486,182.865 136.486,184.125 136.458 C 185.385 136.430,184.354 136.406,181.833 136.406 C 179.313 136.406,178.281 136.430,179.542 136.458 M45.542 138.448 C 45.702 138.490,45.965 138.490,46.125 138.448 C 46.285 138.406,46.154 138.372,45.833 138.372 C 45.512 138.372,45.381 138.406,45.542 138.448 M320.525 140.503 C 318.036 141.632,313.343 142.667,310.708 142.667 C 309.952 142.667,309.333 142.722,309.333 142.790 C 309.333 143.110,310.221 147.115,310.343 147.347 C 310.524 147.690,313.576 148.131,316.781 148.277 L 319.128 148.383 319.385 147.483 C 319.527 146.988,319.986 145.257,320.405 143.637 C 320.825 142.016,321.213 140.572,321.269 140.428 C 321.393 140.105,321.406 140.103,320.525 140.503 M63.208 148.458 C 66.302 148.484,71.365 148.484,74.458 148.458 C 77.552 148.433,75.021 148.412,68.833 148.412 C 62.646 148.412,60.115 148.433,63.208 148.458 M9.553 156.333 C 9.553 156.929,9.584 157.173,9.621 156.875 C 9.658 156.577,9.658 156.090,9.621 155.792 C 9.584 155.494,9.553 155.737,9.553 156.333 M111.301 155.958 C 112.429 155.987,114.229 155.987,115.301 155.958 C 116.373 155.929,115.450 155.905,113.250 155.905 C 111.050 155.905,110.173 155.929,111.301 155.958 M178.552 157.625 C 180.002 157.653,182.327 157.652,183.719 157.625 C 185.111 157.597,183.925 157.574,181.083 157.574 C 178.242 157.574,177.103 157.597,178.552 157.625 M44.208 196.121 C 44.552 196.157,45.115 196.157,45.458 196.121 C 45.802 196.085,45.521 196.056,44.833 196.056 C 44.146 196.056,43.865 196.085,44.208 196.121 " stroke="none" fill="#bcbcbc" fill-rule="evenodd"></path><path id="path4" d="M300.246 20.875 L 298.917 22.250 300.292 20.921 C 301.569 19.686,301.743 19.500,301.621 19.500 C 301.596 19.500,300.977 20.119,300.246 20.875 M330.205 22.000 C 330.205 22.321,330.240 22.452,330.282 22.292 C 330.323 22.131,330.323 21.869,330.282 21.708 C 330.240 21.548,330.205 21.679,330.205 22.000 M359.294 23.951 C 359.501 23.991,359.801 23.990,359.960 23.948 C 360.120 23.906,359.950 23.874,359.583 23.875 C 359.217 23.877,359.086 23.911,359.294 23.951 M365.333 26.417 C 365.644 26.738,365.936 27.000,365.982 27.000 C 366.028 27.000,365.811 26.738,365.500 26.417 C 365.189 26.096,364.897 25.833,364.851 25.833 C 364.805 25.833,365.022 26.096,365.333 26.417 M341.412 34.208 L 340.250 35.417 341.458 34.254 C 342.581 33.175,342.743 33.000,342.621 33.000 C 342.595 33.000,342.051 33.544,341.412 34.208 M370.545 43.167 C 370.545 43.579,370.578 43.748,370.618 43.542 C 370.657 43.335,370.657 42.998,370.618 42.792 C 370.578 42.585,370.545 42.754,370.545 43.167 M290.205 46.333 C 290.205 46.654,290.240 46.785,290.282 46.625 C 290.323 46.465,290.323 46.202,290.282 46.042 C 290.240 45.881,290.205 46.012,290.205 46.333 M370.545 47.167 C 370.545 47.579,370.578 47.748,370.618 47.542 C 370.657 47.335,370.657 46.998,370.618 46.792 C 370.578 46.585,370.545 46.754,370.545 47.167 M290.205 51.500 C 290.205 51.821,290.240 51.952,290.282 51.792 C 290.323 51.631,290.323 51.369,290.282 51.208 C 290.240 51.048,290.205 51.179,290.205 51.500 M362.824 68.958 L 362.250 69.583 362.875 69.009 C 363.457 68.474,363.577 68.333,363.449 68.333 C 363.422 68.333,363.140 68.615,362.824 68.958 M264.708 71.115 C 264.869 71.157,265.131 71.157,265.292 71.115 C 265.452 71.073,265.321 71.039,265.000 71.039 C 264.679 71.039,264.548 71.073,264.708 71.115 M268.292 71.118 C 268.498 71.157,268.835 71.157,269.042 71.118 C 269.248 71.078,269.079 71.045,268.667 71.045 C 268.254 71.045,268.085 71.078,268.292 71.118 M328.326 73.375 C 329.017 74.111,329.167 74.243,329.167 74.118 C 329.167 74.091,328.810 73.735,328.375 73.326 L 327.583 72.583 328.326 73.375 M367.621 74.120 C 367.917 74.157,368.442 74.158,368.788 74.122 C 369.134 74.086,368.892 74.055,368.250 74.055 C 367.608 74.054,367.325 74.083,367.621 74.120 M345.875 75.623 C 346.310 75.657,347.023 75.657,347.458 75.623 C 347.894 75.588,347.537 75.560,346.667 75.560 C 345.796 75.560,345.440 75.588,345.875 75.623 M277.127 83.118 C 277.334 83.158,277.634 83.156,277.794 83.115 C 277.953 83.073,277.783 83.040,277.417 83.042 C 277.050 83.044,276.920 83.078,277.127 83.118 M378.728 90.417 C 378.728 91.333,378.756 91.687,378.790 91.203 C 378.824 90.718,378.823 89.968,378.789 89.536 C 378.755 89.104,378.727 89.500,378.728 90.417 M257.375 106.583 C 257.377 106.950,257.411 107.080,257.451 106.873 C 257.491 106.666,257.490 106.366,257.448 106.206 C 257.406 106.047,257.374 106.217,257.375 106.583 M257.372 108.667 C 257.372 108.987,257.406 109.119,257.448 108.958 C 257.490 108.798,257.490 108.535,257.448 108.375 C 257.406 108.215,257.372 108.346,257.372 108.667 M370.000 114.083 C 369.317 114.771,368.796 115.333,368.842 115.333 C 368.888 115.333,369.484 114.771,370.167 114.083 C 370.850 113.396,371.371 112.833,371.325 112.833 C 371.279 112.833,370.683 113.396,370.000 114.083 M48.794 119.618 C 49.001 119.658,49.301 119.656,49.460 119.615 C 49.620 119.573,49.450 119.540,49.083 119.542 C 48.717 119.544,48.586 119.578,48.794 119.618 M87.082 157.333 C 87.082 178.096,87.101 186.590,87.125 176.208 C 87.149 165.827,87.149 148.840,87.125 138.458 C 87.101 128.077,87.082 136.571,87.082 157.333 M242.125 120.292 C 245.815 120.317,251.852 120.317,255.542 120.292 C 259.231 120.267,256.212 120.246,248.833 120.246 C 241.454 120.246,238.435 120.267,242.125 120.292 M338.542 120.291 C 339.527 120.321,341.140 120.321,342.125 120.291 C 343.110 120.262,342.304 120.237,340.333 120.237 C 338.362 120.237,337.556 120.262,338.542 120.291 M370.000 120.288 C 380.143 120.403,388.294 120.405,388.224 120.292 C 388.182 120.223,383.183 120.184,377.115 120.205 C 371.048 120.226,367.846 120.264,370.000 120.288 M164.946 120.625 C 169.820 120.649,177.845 120.650,182.779 120.625 C 187.713 120.600,183.725 120.580,173.917 120.580 C 164.108 120.580,160.071 120.600,164.946 120.625 M121.667 139.552 C 121.667 139.581,121.910 139.825,122.208 140.094 L 122.750 140.583 122.260 140.042 C 121.804 139.537,121.667 139.423,121.667 139.552 M124.879 146.667 C 124.879 147.079,124.911 147.248,124.951 147.042 C 124.991 146.835,124.991 146.498,124.951 146.292 C 124.911 146.085,124.879 146.254,124.879 146.667 M194.545 146.667 C 194.545 147.079,194.578 147.248,194.618 147.042 C 194.657 146.835,194.657 146.498,194.618 146.292 C 194.578 146.085,194.545 146.254,194.545 146.667 M357.417 194.167 L 347.750 194.254 357.365 194.294 C 363.639 194.320,367.016 194.275,367.083 194.167 C 367.140 194.075,367.163 194.018,367.135 194.040 C 367.107 194.061,362.733 194.119,357.417 194.167 M216.792 194.292 C 219.748 194.317,224.585 194.317,227.542 194.292 C 230.498 194.266,228.079 194.245,222.167 194.245 C 216.254 194.245,213.835 194.266,216.792 194.292 M270.887 194.292 C 273.896 194.317,278.771 194.317,281.720 194.292 C 284.670 194.266,282.208 194.245,276.250 194.245 C 270.292 194.245,267.878 194.266,270.887 194.292 M307.887 194.292 C 310.621 194.317,315.046 194.317,317.720 194.292 C 320.395 194.266,318.158 194.245,312.750 194.245 C 307.342 194.245,305.153 194.266,307.887 194.292 " stroke="none" fill="#9b9b9b" fill-rule="evenodd"></path></g></svg>